<svg width="92" height="48" viewBox="0 0 92 48" fill="none" xmlns="http://www.w3.org/2000/svg">
<g id="Group">
<path id="Vector" d="M29.9403 31.77H23.8401V21.97H32.3103C32.3403 22.55 32.3103 23.08 32.3103 23.72C32.3103 26.91 31.5103 29.57 30.0203 31.65L29.9303 31.77H29.9403Z" fill="#000000"/>
<path id="Vector_2" d="M49.1801 21.97V0H76.3201C85.5101 0 91.4901 7.62 91.4901 15.85C91.4901 24.08 85.5101 31.77 76.3201 31.77H60.5301V47.62H49.1701V32.05M80.4001 15.85C80.4001 13.47 78.7701 9.73 74.2801 9.73H60.5401V21.98H74.2801C78.7701 21.98 80.4001 18.31 80.4001 15.86V15.85Z" fill="#040000"/>
<path id="Vector_3" d="M17.8901 0H6.10352e-05V47.62H17.8901C31.7701 47.62 43.0601 37.69 43.0601 23.81C43.0601 9.93 31.7701 0 17.8901 0ZM29.4801 31.75L29.4501 31.78C27.0701 35.12 22.9901 36.95 17.8901 36.95H11.3601V10.68H17.8901C25.5601 10.68 30.9001 14.8 31.6701 21.97C31.7301 22.56 31.7701 23.17 31.7701 23.81C31.7701 27 30.9701 29.66 29.4801 31.74V31.75Z" fill="#050000"/>
<path id="Vector_4" d="M60.5401 21.97H49.1901H42.3103C42.3103 21.97 42.8203 26.45 41.0403 31.77H60.5401" fill="#0b0000"/>
</g>
</svg>
